<?xml version="1.0" encoding="utf-8"?>
<!-- Generator: Adobe Illustrator 23.0.6, SVG Export Plug-In . SVG Version: 6.00 Build 0)  -->
<svg version="1.1" id="Layer_1" xmlns="http://www.w3.org/2000/svg" xmlns:xlink="http://www.w3.org/1999/xlink" x="0px" y="0px"
	 viewBox="0 0 524.4 708.7" style="enable-background:new 0 0 524.4 708.7;" xml:space="preserve">
<style type="text/css">
	.st0{fill:none;stroke:#FFFFFF;stroke-width:22;}
</style>
<polygon class="st0" points="29.9,124.7 217.1,74.9 244.8,191 286.4,303 307.1,348.6 341.8,390.1 466.5,423.2 490.8,466 
	490.8,547.6 425,585 220.5,585 165.1,531.1 29.9,531.1 29.9,195.2 12.6,128.9 "/>
<polyline class="st0" points="29.9,531.1 29.9,593.3 29.9,655.5 151.2,655.5 151.2,601.5 29.9,601.5 "/>
<line class="st0" x1="188.5" y1="157.9" x2="231.5" y2="135.5"/>
<line class="st0" x1="210" y1="224.2" x2="246.5" y2="195.8"/>
<line class="st0" x1="228.3" y1="280.2" x2="265.3" y2="246.4"/>
<line class="st0" x1="251.7" y1="330" x2="286.4" y2="303"/>
<line class="st0" x1="282" y1="375.6" x2="307.1" y2="348.6"/>
<polyline class="st0" points="151.2,601.5 229.6,655.5 431.9,655.5 518.5,593.3 490.8,547.6 "/>
</svg>
