<?xml version="1.0" encoding="utf-8"?>
<!-- Generator: Adobe Illustrator 23.0.6, SVG Export Plug-In . SVG Version: 6.00 Build 0)  -->
<svg version="1.1" id="Layer_1" xmlns="http://www.w3.org/2000/svg" xmlns:xlink="http://www.w3.org/1999/xlink" x="0px" y="0px"
	 viewBox="0 0 524.4 708.7" style="enable-background:new 0 0 524.4 708.7;" xml:space="preserve">
<style type="text/css">
	.st0{fill:#00009D;stroke:#000000;stroke-width:4;stroke-miterlimit:10;}
	.st1{fill:#FFFFFF;}
	.st2{font-family:'MyriadPro-Regular';}
	.st3{font-size:88.9551px;}
	.st4{fill:none;stroke:#000000;stroke-width:3;stroke-miterlimit:10;}
</style>
<g id="Group_59" transform="translate(-1585 -864)">
	<g transform="matrix(1, 0, 0, 1, 1585, 864)">
		<path id="Path_91-2" class="st0" d="M479,194.8v41.7c0,42.7-28.3,77.4-63.2,77.4H277.7v-13.7c0-13.9-9.2-25.1-20.6-25.1
			c-11.3,0-20.4,11.2-20.5,25.1v13.7H79.9c-34.9,0-63.1-34.7-63.2-77.4v-41.7c0-42.7,28.3-77.4,63.2-77.4h336
			C450.8,117.4,479,152,479,194.8z"/>
	</g>
	<path id="Path_92" class="st1" d="M1778.8,1170.9"/>
	<text transform="matrix(0.8803 0 0 1 1687.6501 1103.4028)" class="st1 st2 st3">PAY NOW</text>
	<path id="Path_93" class="st4" d="M1821.7,1180.1v178.2l-41-32l-14.2-13.8l-2-5c-8.1-9.7-21.1-5-29,5c-7.9,9.9-7.8,25.8,0.3,35.5
		c0,0,0,0,0,0l15.1,12.6l3.7,4.6l87.6,98.2l37.3,13.7h59.7l26.1-13.7l14.9-27.4l1.9-132.5V1292"/>
	<path id="Path_94" class="st4" d="M1944.7,1287.4c-0.3-13.6,8.5-24.8,19.6-25.1c10.8,0,17.7,6.7,17.7,20.6v9.1"/>
	<path id="Path_95" class="st4" d="M1903.7,1303.4v-34.3c0-13.9,9.2-20.6,20.5-20.6c11.3,0,20.5,6.7,20.5,20.6v18.3"/>
	<path id="Path_96" class="st4" d="M1903.7,1280.6v-29.7c0.1-13.9-9-25.2-20.3-25.4c-11.3-0.1-20.6,11-20.7,24.9c0,0.2,0,0.3,0,0.5
		v29.7"/>
	<line id="Line_2" class="st4" x1="1862.7" y1="1250.9" x2="1862.7" y2="1177.8"/>
</g>
</svg>
