<?xml version="1.0" encoding="utf-8"?>
<!-- Generator: Adobe Illustrator 23.0.6, SVG Export Plug-In . SVG Version: 6.00 Build 0)  -->
<svg version="1.1" id="Layer_1" xmlns="http://www.w3.org/2000/svg" xmlns:xlink="http://www.w3.org/1999/xlink" x="0px" y="0px"
	 viewBox="0 0 595.3 841.9" style="enable-background:new 0 0 595.3 841.9;" xml:space="preserve">
<style type="text/css">
	.st0{fill:#FFFFFF;stroke:#000000;stroke-width:7;stroke-miterlimit:10;}
	.st1{fill:none;stroke:#000000;stroke-width:7;stroke-miterlimit:10;}
</style>
<circle class="st0" cx="297.6" cy="262.2" r="50.7"/>
<path class="st0" d="M362.8,613.1"/>
<g>
	<path class="st0" d="M213,402c22.6,19.9,52.2,31.9,84.6,31.9c36,0,68.5-14.8,91.8-38.7c-23.9,22.9-56.3,36.9-92,36.9
		C265.4,432.1,236,420.8,213,402z"/>
	<path class="st1" d="M389.4,395.2c25.4-24.3,41.2-58.4,41.2-96.3c0-73.6-59.6-133.2-133.2-133.2s-133.2,59.6-133.2,133.2
		c0,41.6,19,78.7,48.9,103.1"/>
	<path class="st0" d="M297.6,313c-50.7,0-83,39.8-109.4,59.6c10.3,18.5,7.8,14.5,24.8,29.4c23,18.8,52.4,30.1,84.4,30.1
		c35.7,0,68.1-14,92-36.9c13.5-13.8,6-5.4,19-22.7C382,352.7,348.3,313,297.6,313z"/>
</g>
</svg>
