<?xml version="1.0" encoding="utf-8"?>
<!-- Generator: Adobe Illustrator 23.0.6, SVG Export Plug-In . SVG Version: 6.00 Build 0)  -->
<svg version="1.1" id="Layer_1" xmlns="http://www.w3.org/2000/svg" xmlns:xlink="http://www.w3.org/1999/xlink" x="0px" y="0px"
	 viewBox="0 0 595.3 841.9" style="enable-background:new 0 0 595.3 841.9;" xml:space="preserve">
<style type="text/css">
	.st0{fill:none;stroke:#000000;stroke-width:5;stroke-miterlimit:10;}
	.st1{fill:none;stroke:#000000;stroke-width:15;stroke-miterlimit:10;}
	.st2{fill:#A67244;stroke:#000000;stroke-width:5;stroke-miterlimit:10;}
</style>
<path class="st0" d="M208.9,318.9"/>
<path class="st1" d="M302.6,166.6"/>
<path class="st0" d="M284,313"/>
<rect x="314" y="393.9" class="st0" width="50" height="50"/>
<path class="st0" d="M339,193.9"/>
<g>
	<rect x="314" y="393.9" class="st0" width="50" height="50"/>
	<polygon class="st0" points="439.2,344.2 439,344.2 414,344.2 414,344.1 339.2,269.4 264.5,344.1 264,344.1 238.3,344.1 264,318.4 
		338.6,243.8 338.7,243.7 414,318.9 	"/>
	<polygon class="st0" points="264.5,344.1 264,344.6 264,344.1 	"/>
</g>
<polygon class="st0" points="414,344.2 414,344.2 414,344.1 "/>
<polygon class="st2" points="414,344.1 414,443.9 364,443.9 364,393.9 314,393.9 314,443.9 264,443.9 264,344.6 264.5,344.1 
	339.2,269.4 "/>
<line class="st0" x1="264" y1="344.6" x2="238.3" y2="344.1"/>
<polyline class="st0" points="414,344.2 414.2,344.4 439.2,344.4 "/>
<path class="st0" d="M381.5,657.9"/>
</svg>
