<?xml version="1.0" encoding="utf-8"?>
<!-- Generator: Adobe Illustrator 23.0.6, SVG Export Plug-In . SVG Version: 6.00 Build 0)  -->
<svg version="1.1" id="Layer_1" xmlns="http://www.w3.org/2000/svg" xmlns:xlink="http://www.w3.org/1999/xlink" x="0px" y="0px"
	 viewBox="0 0 524.4 708.7" style="enable-background:new 0 0 524.4 708.7;" xml:space="preserve">
<style type="text/css">
	.st0{fill:#8C4126;stroke:#691600;stroke-width:2;stroke-miterlimit:10;}
	.st1{fill:#8C4126;stroke:#FFFF00;stroke-width:2;stroke-miterlimit:10;}
</style>
<polygon class="st0" points="117.8,0.8 0.3,102.9 117.8,210.2 235.2,368.5 168.8,478.3 71.8,590.6 0.3,590.6 0.3,708.1 523.8,708.1 
	523.8,0.8 373.1,59.5 260.8,64.6 "/>
<line class="st1" x1="379.5" y1="115" x2="445.2" y2="71.2"/>
<path class="st1" d="M320.6,376.6"/>
<path class="st1" d="M363.9,159.5"/>
<line class="st1" x1="349.5" y1="119" x2="283.8" y2="119"/>
<path class="st1" d="M505.9,37.9"/>
<path class="st1" d="M77,618.9c0,0,0,55.9,0,55.9"/>
<path class="st1" d="M397.5,674.2c0,0,55.9,0,55.9,0"/>
<path class="st1" d="M296.5,672c0,0,55.9,0,55.9,0"/>
<path class="st1" d="M199.7,672c0,0,55.9,0,55.9,0"/>
<path class="st1" d="M113.8,672c0,0,55.9,0,55.9,0"/>
<path class="st1" d="M152.6,555.9c0,0-39.5,39.5-39.5,39.5"/>
<path class="st1" d="M219.4,485.8c0,0-39.5,39.5-39.5,39.5"/>
<path class="st1" d="M282.9,420.1c0,0-39.5,39.5-39.5,39.5"/>
<path class="st1" d="M484.3,578.4c0,0,0,55.9,0,55.9"/>
<path class="st1" d="M484.3,468.8c0,0,0,55.9,0,55.9"/>
<path class="st1" d="M484.3,358.1c0,0,0,55.9,0,55.9"/>
<path class="st1" d="M484.3,241.1c0,0,0,55.9,0,55.9"/>
<path class="st1" d="M484.3,125.5c0,0,0,55.9,0,55.9"/>
<path class="st1" d="M484.3,41.8c0,0,0,55.9,0,55.9"/>
<path class="st1" d="M316.6,371.8c0,0-39.5-39.5-39.5-39.5"/>
<path class="st1" d="M247.4,296.5c0,0-39.5-39.5-39.5-39.5"/>
<path class="st1" d="M175.6,219.8c0,0-39.5-39.5-39.5-39.5"/>
<path class="st1" d="M101.5,144.6c0,0-39.5-39.5-39.5-39.5"/>
<path class="st1" d="M101.5,50c0,0-39.5,39.5-39.5,39.5"/>
<path class="st1" d="M172.3,96.1c0,0-39.5-39.5-39.5-39.5"/>
<path class="st1" d="M255.3,116.1c0,0-55.9,0-55.9,0"/>
</svg>
