<?xml version="1.0" encoding="utf-8"?>
<!-- Generator: Adobe Illustrator 23.0.6, SVG Export Plug-In . SVG Version: 6.00 Build 0)  -->
<svg version="1.1" id="Layer_1" xmlns="http://www.w3.org/2000/svg" xmlns:xlink="http://www.w3.org/1999/xlink" x="0px" y="0px"
	 viewBox="0 0 524.4 708.7" style="enable-background:new 0 0 524.4 708.7;" xml:space="preserve">
<style type="text/css">
	.st0{fill:none;stroke:#FFFFFF;stroke-width:15;stroke-miterlimit:10;}
	.st1{fill:#FFFFFF;stroke:#FFFFFF;stroke-width:15;stroke-miterlimit:10;}
	.st2{fill:none;stroke:#FFFFFF;stroke-width:8;stroke-miterlimit:10;}
</style>
<g id="Group_56" transform="translate(-1342.304 -639.166)">
	<path id="Path_74" class="st0" d="M1539.1,947l17.5-13.1l12-9v-14.8l-29.5-29.5c-0.1,0-10,4.3-18.4,7.4c-11.3,4.1-22,7.3-22.1,7.4
		l-11.1,18.5l18.4,59l25.8,40.6l31.4,27.7l42.4,24l36.9,11.1l14.8-3.7l11.1-7.4l11.1-18.4l5.5-12.9l-12.9-24l-24-16.6l-12.9,1.8
		l-12.9,27.7l-25.8-7.4l-22.1-14.8l-18.4-22.1l-11.1-14.8L1539.1,947z"/>
	<path id="Path_75" class="st0" d="M1690.4,1013.3c11.1-5.7,20.2-14.7,25.8-25.8c14.9-31.5-9.3-68.7-22.1-88.5
		c-19.3-28.7-46.1-51.7-77.5-66.4c-24-12.2-50.5-18.6-77.5-18.4c-18,0.3-64.5,1-88.5,33.2c-9.7,13.1-11.5,25.6-14.8,48
		c-4.9,34.6-2.4,69.8,7.4,103.3c10.7,35.9,29.6,68.7,55.3,95.9c16.6,18.5,36.6,33.5,59,44.3c14.4,6.7,51.1,23.8,95.9,14.8
		c30.9-6.2,50.9-21.8,70.1-36.9c63.2-47.1,95.7-124.8,84.8-202.9c-3-21.2-8.6-57.3-36.9-88.5c-7.6-8.4-16.3-15.9-25.8-22.1"/>
	<path id="Path_76" class="st0" d="M1629.7,1010.1l47,40.8L1629.7,1010.1z"/>
	<path id="Path_77" class="st0" d="M1520.7,887.9l33.2,48L1520.7,887.9z"/>
	<path id="Path_78" class="st1" d="M1537.3,884.2l29.5,29.5v14.8l-14.8,11.1l-33.2-48L1537.3,884.2z"/>
	<path id="Path_79" class="st1" d="M1635,994.9l14.3,1.2l22.5,13.6l12.9,26.6l-9.2,13.9l-44.2-40.6L1635,994.9z"/>
</g>
<circle class="st2" cx="262.2" cy="317.9" r="243"/>
</svg>
