<?xml version="1.0" encoding="utf-8"?>
<!-- Generator: Adobe Illustrator 23.0.6, SVG Export Plug-In . SVG Version: 6.00 Build 0)  -->
<svg version="1.1" id="Layer_1" xmlns="http://www.w3.org/2000/svg" xmlns:xlink="http://www.w3.org/1999/xlink" x="0px" y="0px"
	 viewBox="0 0 524.4 708.7" style="enable-background:new 0 0 524.4 708.7;" xml:space="preserve">
<style type="text/css">
	.st0{fill:#FFFFFF;stroke:#FFFFFF;stroke-width:2;}
	.st1{fill:none;stroke:#FFFFFF;stroke-width:10;stroke-miterlimit:10;}
	.st2{fill:#FFFFFF;stroke:#FFFFFF;stroke-width:2;stroke-miterlimit:10;}
</style>
<g id="Group_55" transform="translate(-85 -61.581)">
	<g transform="matrix(1, 0, 0, 1, 85, 61.58)">
		<path id="Path_66-2" class="st0" d="M455.1,537.9c27,0,48.9,23.3,48.9,52s-21.9,52-48.9,52c-27,0-48.9-23.3-48.9-52
			C406.1,561.2,428,537.9,455.1,537.9z"/>
	</g>
	<g transform="matrix(1, 0, 0, 1, 85, 61.58)">
		<path id="Path_1-2" class="st1" d="M515.6,513.6H239.5c-35,0-63.4-39.8-63.4-88.8l-14.2-160.6c0-49-14.2-34-49.2-34H-0.8"/>
	</g>
	<g transform="matrix(1, 0, 0, 1, 85, 61.58)">
		<path id="Path_2-2" class="st2" d="M241.5,215.1h261.8c10.9,0,16.4,24.5,8.7,39l-52.4,99.5c-4.2,8.5-10.7,13.5-17.5,13.7h-218
			l-16-152.3H241.5z"/>
	</g>
	<g transform="matrix(1, 0, 0, 1, 85, 61.58)">
		<path id="Path_65-2" class="st0" d="M241.8,544.9c27.7,0,50.1,21.7,50.1,48.5c0,26.8-22.4,48.5-50.1,48.5s-50.1-21.7-50.1-48.5
			C191.7,566.6,214.2,544.9,241.8,544.9z"/>
	</g>
</g>
</svg>
